<?xml version="1.0" encoding="UTF-8" standalone="no"?>
<!-- Created with Inkscape (http://www.inkscape.org/) -->

<svg
   version="1.1"
   id="svg1"
   width="880"
   height="880"
   viewBox="0 0 880 880"
   sodipodi:docname="busy-work-desk.svg"
   inkscape:version="1.3.2 (091e20e, 2023-11-25, custom)"
   xmlns:inkscape="http://www.inkscape.org/namespaces/inkscape"
   xmlns:sodipodi="http://sodipodi.sourceforge.net/DTD/sodipodi-0.dtd"
   xmlns="http://www.w3.org/2000/svg"
   xmlns:svg="http://www.w3.org/2000/svg">
  <defs
     id="defs1">
    <clipPath
       clipPathUnits="userSpaceOnUse"
       id="clipPath4">
      <path
         d="M 0,660 H 660 V 0 H 0 Z"
         transform="translate(-194.25291,-169.9141)"
         id="path4" />
    </clipPath>
    <clipPath
       clipPathUnits="userSpaceOnUse"
       id="clipPath6">
      <path
         d="M 0,660 H 660 V 0 H 0 Z"
         id="path6" />
    </clipPath>
    <clipPath
       clipPathUnits="userSpaceOnUse"
       id="clipPath8">
      <path
         d="M 0,660 H 660 V 0 H 0 Z"
         id="path8" />
    </clipPath>
    <clipPath
       clipPathUnits="userSpaceOnUse"
       id="clipPath10">
      <path
         d="M 0,660 H 660 V 0 H 0 Z"
         transform="translate(-119.2734,-501.18701)"
         id="path10" />
    </clipPath>
    <clipPath
       clipPathUnits="userSpaceOnUse"
       id="clipPath12">
      <path
         d="M 0,660 H 660 V 0 H 0 Z"
         transform="translate(-516.06151,-497.07081)"
         id="path12" />
    </clipPath>
    <clipPath
       clipPathUnits="userSpaceOnUse"
       id="clipPath14">
      <path
         d="M 0,660 H 660 V 0 H 0 Z"
         transform="translate(-119.2734,-501.18701)"
         id="path14" />
    </clipPath>
    <clipPath
       clipPathUnits="userSpaceOnUse"
       id="clipPath16">
      <path
         d="M 0,660 H 660 V 0 H 0 Z"
         transform="translate(-42.221701,-254.8369)"
         id="path16" />
    </clipPath>
    <clipPath
       clipPathUnits="userSpaceOnUse"
       id="clipPath18">
      <path
         d="M 0,660 H 660 V 0 H 0 Z"
         transform="translate(-55.600601,-236.7598)"
         id="path18" />
    </clipPath>
    <clipPath
       clipPathUnits="userSpaceOnUse"
       id="clipPath20">
      <path
         d="M 0,660 H 660 V 0 H 0 Z"
         transform="translate(-415.79591,-345.78561)"
         id="path20" />
    </clipPath>
    <clipPath
       clipPathUnits="userSpaceOnUse"
       id="clipPath22">
      <path
         d="M 0,660 H 660 V 0 H 0 Z"
         transform="translate(-453.40531,-335.93261)"
         id="path22" />
    </clipPath>
    <clipPath
       clipPathUnits="userSpaceOnUse"
       id="clipPath24">
      <path
         d="M 0,660 H 660 V 0 H 0 Z"
         transform="translate(-437.53421,-195.58401)"
         id="path24" />
    </clipPath>
    <clipPath
       clipPathUnits="userSpaceOnUse"
       id="clipPath26">
      <path
         d="M 0,660 H 660 V 0 H 0 Z"
         transform="translate(-415.36911,-284.25391)"
         id="path26" />
    </clipPath>
    <clipPath
       clipPathUnits="userSpaceOnUse"
       id="clipPath28">
      <path
         d="M 0,660 H 660 V 0 H 0 Z"
         transform="translate(-413.47851,-277.042)"
         id="path28" />
    </clipPath>
    <clipPath
       clipPathUnits="userSpaceOnUse"
       id="clipPath30">
      <path
         d="M 0,660 H 660 V 0 H 0 Z"
         transform="translate(-414.69731,-326.32911)"
         id="path30" />
    </clipPath>
    <clipPath
       clipPathUnits="userSpaceOnUse"
       id="clipPath32">
      <path
         d="M 0,660 H 660 V 0 H 0 Z"
         transform="translate(-185.2017,-165.38871)"
         id="path32" />
    </clipPath>
    <clipPath
       clipPathUnits="userSpaceOnUse"
       id="clipPath34">
      <path
         d="M 0,660 H 660 V 0 H 0 Z"
         transform="translate(-352.15231,-281.55181)"
         id="path34" />
    </clipPath>
    <clipPath
       clipPathUnits="userSpaceOnUse"
       id="clipPath36">
      <path
         d="M 0,660 H 660 V 0 H 0 Z"
         transform="translate(-329.56251,-327.16991)"
         id="path36" />
    </clipPath>
    <clipPath
       clipPathUnits="userSpaceOnUse"
       id="clipPath38">
      <path
         d="M 0,660 H 660 V 0 H 0 Z"
         transform="translate(-328.63381,-337.03321)"
         id="path38" />
    </clipPath>
    <clipPath
       clipPathUnits="userSpaceOnUse"
       id="clipPath40">
      <path
         d="M 0,660 H 660 V 0 H 0 Z"
         transform="translate(-329.56251,-327.16991)"
         id="path40" />
    </clipPath>
    <clipPath
       clipPathUnits="userSpaceOnUse"
       id="clipPath42">
      <path
         d="M 0,660 H 660 V 0 H 0 Z"
         transform="translate(-50.136202,-378.13821)"
         id="path42" />
    </clipPath>
    <clipPath
       clipPathUnits="userSpaceOnUse"
       id="clipPath44">
      <path
         d="M 0,660 H 660 V 0 H 0 Z"
         transform="translate(-51.987802,-376.61821)"
         id="path44" />
    </clipPath>
  </defs>
  <sodipodi:namedview
     id="namedview1"
     pagecolor="#ffffff"
     bordercolor="#000000"
     borderopacity="0.25"
     inkscape:showpageshadow="2"
     inkscape:pageopacity="0.0"
     inkscape:pagecheckerboard="0"
     inkscape:deskcolor="#d1d1d1"
     inkscape:zoom="0.67272727"
     inkscape:cx="439.25676"
     inkscape:cy="440"
     inkscape:window-width="1440"
     inkscape:window-height="830"
     inkscape:window-x="-6"
     inkscape:window-y="-6"
     inkscape:window-maximized="1"
     inkscape:current-layer="g1">
    <inkscape:page
       x="0"
       y="0"
       inkscape:label="1"
       id="page1"
       width="880"
       height="880"
       margin="0"
       bleed="0" />
  </sodipodi:namedview>
  <g
     id="g1"
     inkscape:groupmode="layer"
     inkscape:label="1">
    <g
       id="group-MC0">
      <path
         id="path2"
         d="M 0,0 H 660 V 660 H 0 Z"
         style="fill:#faba9c;fill-opacity:1;fill-rule:nonzero;stroke:none"
         transform="matrix(1.3333333,0,0,-1.3333333,0,880)" />
      <path
         id="path3"
         d="m 0,0 c 10.031,-5.054 13.088,-19.223 6.829,-31.645 -6.261,-12.424 -19.466,-18.398 -29.497,-13.344 -10.031,5.053 -13.087,19.222 -6.828,31.645 C -23.236,-0.92 -10.031,5.054 0,0 m -148.57,87.585 32.266,-82.283 217.107,85.137 -32.268,82.282 z m 314.853,19.522 c 1.003,-2.977 0.656,-5.744 -0.868,-6.359 -1.527,-0.615 -3.695,1.135 -5.04,3.975 l -0.639,-0.259 -21.63,53.591 -2.141,11.527 0.636,0.255 -1.368,4.572 0.772,0.312 2.188,-4.24 0.635,0.257 6.461,-9.784 21.632,-53.591 z m -307.125,102.536 22.3,27.158 c 1.487,1.811 4.184,2.076 5.995,0.589 l 59.663,-48.993 c 1.811,-1.487 2.076,-4.186 0.589,-5.995 l -22.3,-27.157 c -1.487,-1.81 -4.184,-2.074 -5.995,-0.589 l -59.663,48.993 c -1.811,1.487 -2.076,4.184 -0.589,5.994 m 318.498,-8.014 11.87,11.871 v 40.715 h 113.27 l 52.96,91.728 -6.119,10.599 H 5.172 L -19.32,295.628 Z"
         style="fill:#e8a282;fill-opacity:1;fill-rule:evenodd;stroke:none"
         transform="matrix(1.3333333,0,0,-1.3333333,259.00387,653.44787)"
         clip-path="url(#clipPath4)" />
      <path
         id="path5"
         d="M 265.955,371.543 H 371.907 V 434.37 H 265.955 Z"
         style="fill:#ffffff;fill-opacity:1;fill-rule:evenodd;stroke:none"
         transform="matrix(1.3333333,0,0,-1.3333333,0,880)"
         clip-path="url(#clipPath6)" />
      <path
         id="path7"
         d="M 265.955,397.632 H 371.907 V 434.37 H 265.955 Z"
         style="fill:#fef6f3;fill-opacity:1;fill-rule:evenodd;stroke:none"
         transform="matrix(1.3333333,0,0,-1.3333333,0,880)"
         clip-path="url(#clipPath8)" />
      <path
         id="path9"
         d="M 0,0 H 399.319 L 345.011,-88.382 H 54.307 Z"
         style="fill:#fcd5c5;fill-opacity:1;fill-rule:evenodd;stroke:none"
         transform="matrix(1.3333333,0,0,-1.3333333,159.0312,211.75067)"
         clip-path="url(#clipPath10)" />
      <path
         id="path11"
         d="m 0,0 -44.819,-72.941 h -304.62 L -394.259,0 Z"
         style="fill:#ad6546;fill-opacity:1;fill-rule:evenodd;stroke:none"
         transform="matrix(1.3333333,0,0,-1.3333333,688.082,217.23893)"
         clip-path="url(#clipPath12)" />
      <path
         id="path13"
         d="M 0,0 H 399.319 L 394.49,7.987 H 4.828 Z"
         style="fill:#ffffff;fill-opacity:1;fill-rule:evenodd;stroke:none"
         transform="matrix(1.3333333,0,0,-1.3333333,159.0312,211.75067)"
         clip-path="url(#clipPath14)" />
      <path
         id="path15"
         d="M 0,0 217.105,85.136 249.371,2.855 32.267,-82.283 Z"
         style="fill:#fcdacc;fill-opacity:1;fill-rule:evenodd;stroke:none"
         transform="matrix(1.3333333,0,0,-1.3333333,56.2956,540.21747)"
         clip-path="url(#clipPath16)" />
      <path
         id="path17"
         d="m 0,0 c 1.231,-3.141 2.463,-6.279 3.693,-9.418 4.379,1.716 8.758,3.434 13.136,5.151 -1.23,3.139 -2.462,6.278 -3.692,9.418 C 8.758,3.434 4.379,1.716 0,0 m 173.76,68.139 c 1.231,-3.139 2.462,-6.28 3.692,-9.418 4.379,1.717 8.758,3.435 13.137,5.153 -1.232,3.137 -2.462,6.277 -3.694,9.416 -4.377,-1.718 -8.756,-3.434 -13.135,-5.151 m -19.306,-7.571 c 1.231,-3.138 2.461,-6.279 3.693,-9.418 4.378,1.718 8.756,3.434 13.134,5.152 -1.23,3.138 -2.462,6.279 -3.692,9.418 -4.379,-1.718 -8.758,-3.434 -13.135,-5.152 m -19.308,-7.572 c 1.231,-3.139 2.462,-6.277 3.693,-9.418 4.379,1.718 8.758,3.436 13.136,5.151 -1.23,3.141 -2.462,6.28 -3.693,9.418 -4.378,-1.715 -8.757,-3.433 -13.136,-5.151 m -19.306,-7.57 c 1.231,-3.141 2.463,-6.28 3.693,-9.418 4.379,1.718 8.757,3.435 13.135,5.151 -1.231,3.139 -2.462,6.279 -3.693,9.418 -4.378,-1.716 -8.756,-3.435 -13.135,-5.151 M 96.533,37.855 c 1.232,-3.14 2.463,-6.279 3.693,-9.418 4.379,1.716 8.758,3.436 13.136,5.152 -1.231,3.139 -2.462,6.277 -3.693,9.418 -4.378,-1.718 -8.757,-3.436 -13.136,-5.152 m -19.307,-7.57 c 1.232,-3.14 2.463,-6.281 3.694,-9.418 4.379,1.716 8.757,3.434 13.136,5.151 -1.232,3.137 -2.462,6.278 -3.694,9.418 -4.378,-1.719 -8.757,-3.435 -13.136,-5.151 M 57.92,22.713 c 1.232,-3.139 2.463,-6.279 3.694,-9.418 4.379,1.718 8.757,3.434 13.135,5.151 -1.231,3.139 -2.462,6.28 -3.693,9.418 C 66.678,26.146 62.299,24.431 57.92,22.713 M 38.614,15.141 c 1.23,-3.139 2.462,-6.278 3.693,-9.418 4.378,1.719 8.757,3.435 13.135,5.151 -1.231,3.141 -2.462,6.279 -3.693,9.418 -4.378,-1.716 -8.757,-3.434 -13.135,-5.151 m 154.452,60.57 c 1.231,-3.141 2.462,-6.28 3.694,-9.418 4.379,1.716 8.757,3.434 13.134,5.151 -1.23,3.139 -2.461,6.278 -3.692,9.418 -4.379,-1.717 -8.757,-3.435 -13.136,-5.151 M 5.401,-13.771 c 4.378,1.717 8.757,3.435 13.135,5.151 1.232,-3.139 2.462,-6.278 3.693,-9.417 -4.377,-1.717 -8.756,-3.433 -13.135,-5.152 -1.231,3.14 -2.462,6.279 -3.693,9.418 m 173.759,68.14 c 4.378,1.716 8.757,3.434 13.135,5.152 1.231,-3.141 2.463,-6.28 3.693,-9.418 -4.378,-1.716 -8.757,-3.436 -13.135,-5.152 -1.231,3.139 -2.462,6.277 -3.693,9.418 m -19.306,-7.57 c 4.378,1.716 8.757,3.433 13.135,5.15 1.231,-3.139 2.462,-6.278 3.693,-9.418 -4.378,-1.717 -8.757,-3.434 -13.136,-5.15 -1.23,3.136 -2.462,6.277 -3.692,9.418 m -19.307,-7.572 c 4.378,1.717 8.757,3.433 13.134,5.151 1.232,-3.139 2.463,-6.279 3.693,-9.417 -4.377,-1.719 -8.756,-3.435 -13.135,-5.151 -1.23,3.137 -2.462,6.278 -3.692,9.417 M 121.24,31.654 c 4.378,1.718 8.758,3.436 13.136,5.152 1.23,-3.138 2.462,-6.278 3.693,-9.416 -4.379,-1.718 -8.758,-3.434 -13.135,-5.154 -1.232,3.141 -2.462,6.281 -3.694,9.418 m -19.306,-7.57 c 4.378,1.718 8.756,3.436 13.135,5.151 1.231,-3.138 2.462,-6.278 3.693,-9.418 -4.378,-1.715 -8.756,-3.433 -13.135,-5.151 -1.232,3.141 -2.463,6.279 -3.693,9.418 m -19.307,-7.57 c 4.379,1.715 8.758,3.435 13.135,5.151 1.231,-3.141 2.463,-6.279 3.694,-9.418 -4.379,-1.716 -8.757,-3.434 -13.136,-5.151 -1.231,3.138 -2.462,6.277 -3.693,9.418 M 63.321,8.943 c 4.378,1.716 8.757,3.434 13.135,5.151 1.231,-3.14 2.462,-6.279 3.693,-9.418 C 75.771,2.959 71.392,1.241 67.014,-0.475 65.783,2.662 64.552,5.803 63.321,8.943 M 44.014,1.371 c 4.379,1.718 8.757,3.434 13.135,5.151 1.231,-3.139 2.462,-6.279 3.693,-9.418 -4.378,-1.715 -8.756,-3.433 -13.135,-5.151 -1.231,3.139 -2.462,6.279 -3.693,9.418 m 154.452,60.568 c 4.379,1.718 8.758,3.436 13.135,5.152 1.232,-3.139 2.463,-6.278 3.694,-9.418 -4.378,-1.716 -8.757,-3.434 -13.136,-5.152 -1.23,3.141 -2.462,6.28 -3.693,9.418 M 10.8,-27.54 c 1.232,-3.14 2.463,-6.28 3.694,-9.418 4.378,1.716 8.757,3.434 13.135,5.151 -1.231,3.137 -2.462,6.278 -3.693,9.418 -4.378,-1.719 -8.757,-3.435 -13.136,-5.151 m 173.76,68.138 c 1.23,-3.137 2.462,-6.278 3.692,-9.416 4.379,1.716 8.758,3.432 13.136,5.15 -1.23,3.139 -2.461,6.279 -3.693,9.416 -4.378,-1.716 -8.756,-3.432 -13.135,-5.15 m -19.307,-7.571 c 1.232,-3.138 2.462,-6.277 3.694,-9.418 4.378,1.718 8.757,3.435 13.134,5.151 -1.23,3.14 -2.461,6.279 -3.692,9.418 -4.379,-1.716 -8.758,-3.433 -13.136,-5.151 m -19.307,-7.57 c 1.232,-3.141 2.462,-6.279 3.694,-9.418 4.378,1.716 8.756,3.435 13.135,5.15 -1.231,3.139 -2.462,6.278 -3.693,9.418 -4.378,-1.717 -8.757,-3.434 -13.136,-5.15 m -19.306,-7.57 c 1.231,-3.141 2.462,-6.28 3.693,-9.418 4.379,1.715 8.758,3.432 13.135,5.15 -1.23,3.139 -2.461,6.277 -3.693,9.418 -4.378,-1.718 -8.757,-3.434 -13.135,-5.15 m -19.307,-7.573 c 1.232,-3.138 2.463,-6.279 3.694,-9.416 4.378,1.715 8.757,3.432 13.135,5.151 -1.231,3.137 -2.462,6.277 -3.693,9.416 -4.378,-1.718 -8.757,-3.434 -13.136,-5.151 M 88.027,2.744 c 1.231,-3.139 2.462,-6.279 3.693,-9.418 4.379,1.717 8.757,3.433 13.136,5.151 -1.232,3.138 -2.462,6.279 -3.693,9.418 C 96.784,6.177 92.406,4.461 88.027,2.744 M 68.721,-4.828 c 1.23,-3.139 2.462,-6.277 3.693,-9.418 4.378,1.719 8.757,3.434 13.134,5.15 -1.23,3.141 -2.461,6.28 -3.692,9.418 -4.378,-1.716 -8.757,-3.431 -13.135,-5.15 m -19.307,-7.57 c 1.231,-3.141 2.462,-6.278 3.693,-9.418 4.378,1.716 8.757,3.434 13.135,5.15 -1.23,3.139 -2.462,6.277 -3.693,9.418 -4.378,-1.716 -8.757,-3.435 -13.135,-5.15 M 203.867,48.17 c 1.23,-3.139 2.462,-6.279 3.692,-9.418 4.379,1.718 8.757,3.433 13.135,5.15 -1.23,3.139 -2.462,6.28 -3.692,9.418 -4.379,-1.717 -8.757,-3.432 -13.135,-5.15 M 16.201,-41.312 29.336,-36.16 33.03,-45.578 19.893,-50.73 Z m 173.758,68.141 c 4.379,1.716 8.758,3.434 13.136,5.151 1.232,-3.14 2.463,-6.281 3.694,-9.418 -4.378,-1.717 -8.757,-3.435 -13.136,-5.151 -1.231,3.138 -2.462,6.277 -3.694,9.418 m -19.305,-7.572 c 4.378,1.718 8.757,3.433 13.135,5.151 1.231,-3.138 2.462,-6.279 3.693,-9.418 -4.379,-1.718 -8.756,-3.433 -13.135,-5.151 -1.232,3.14 -2.462,6.279 -3.693,9.418 m -19.307,-7.571 c 4.379,1.718 8.756,3.434 13.134,5.15 1.232,-3.139 2.463,-6.277 3.694,-9.418 -4.378,-1.716 -8.757,-3.432 -13.136,-5.15 -1.23,3.139 -2.462,6.278 -3.692,9.418 M 132.039,4.114 c 4.379,1.718 8.758,3.436 13.137,5.152 1.23,-3.139 2.462,-6.278 3.692,-9.418 -4.378,-1.716 -8.756,-3.434 -13.135,-5.152 -1.231,3.141 -2.462,6.28 -3.694,9.418 m -19.305,-7.57 c 4.378,1.716 8.757,3.435 13.136,5.151 1.23,-3.14 2.461,-6.279 3.692,-9.418 -4.378,-1.716 -8.757,-3.433 -13.136,-5.151 -1.23,3.139 -2.462,6.278 -3.692,9.418 m -19.307,-7.57 c 4.379,1.715 8.757,3.433 13.135,5.151 1.231,-3.141 2.462,-6.279 3.693,-9.418 -4.378,-1.718 -8.757,-3.436 -13.135,-5.151 -1.231,3.138 -2.462,6.277 -3.693,9.418 M 74.12,-18.599 c 4.379,1.718 8.758,3.434 13.136,5.152 1.231,-3.139 2.463,-6.28 3.693,-9.416 -4.378,-1.72 -8.757,-3.436 -13.136,-5.152 -1.23,3.137 -2.461,6.278 -3.693,9.416 M 54.813,-26.17 c 4.378,1.719 8.758,3.435 13.136,5.15 1.231,-3.136 2.462,-6.277 3.694,-9.416 -4.379,-1.717 -8.757,-3.433 -13.136,-5.152 -1.232,3.14 -2.462,6.28 -3.694,9.418 m 154.453,60.569 13.136,5.152 3.693,-9.418 -13.136,-5.152 z M 35.507,-33.741 c 1.232,-3.139 2.462,-6.278 3.694,-9.416 4.379,1.716 8.757,3.433 13.134,5.149 -1.231,3.141 -2.462,6.279 -3.692,9.418 -4.379,-1.716 -8.757,-3.433 -13.136,-5.151 m -5.4,13.772 c 4.378,1.716 8.757,3.433 13.135,5.151 1.232,-3.141 2.462,-6.28 3.694,-9.418 -4.378,-1.716 -8.757,-3.435 -13.136,-5.151 -1.231,3.139 -2.462,6.278 -3.693,9.418 m -5.4,13.768 c 1.231,-3.137 2.462,-6.278 3.693,-9.416 4.379,1.718 8.758,3.433 13.136,5.15 -1.231,3.14 -2.463,6.28 -3.693,9.418 -4.378,-1.717 -8.757,-3.433 -13.136,-5.152 M -5.399,13.77 7.736,18.921 11.429,9.505 -1.706,4.354 Z m 173.758,68.139 c 4.379,1.718 8.758,3.435 13.136,5.151 1.231,-3.137 2.463,-6.278 3.693,-9.417 -4.378,-1.717 -8.756,-3.433 -13.135,-5.152 -1.231,3.141 -2.462,6.28 -3.694,9.418 m -19.305,-7.57 c 4.378,1.717 8.756,3.434 13.134,5.15 1.232,-3.138 2.463,-6.277 3.694,-9.418 -4.378,-1.716 -8.757,-3.433 -13.136,-5.15 -1.23,3.14 -2.462,6.277 -3.692,9.418 m -19.307,-7.571 c 4.378,1.716 8.756,3.433 13.135,5.151 1.231,-3.141 2.462,-6.279 3.693,-9.418 -4.378,-1.716 -8.757,-3.435 -13.136,-5.15 -1.231,3.138 -2.462,6.277 -3.692,9.417 M 110.44,59.197 c 4.379,1.716 8.758,3.434 13.135,5.15 1.232,-3.139 2.463,-6.28 3.693,-9.416 -4.378,-1.718 -8.757,-3.435 -13.136,-5.152 -1.23,3.138 -2.462,6.279 -3.692,9.418 M 91.134,51.626 c 4.378,1.717 8.756,3.433 13.135,5.15 1.23,-3.138 2.462,-6.279 3.692,-9.418 -4.378,-1.717 -8.756,-3.433 -13.134,-5.15 -1.231,3.139 -2.463,6.279 -3.693,9.418 M 71.827,44.054 c 4.379,1.718 8.757,3.434 13.135,5.152 1.231,-3.141 2.463,-6.279 3.693,-9.418 -4.378,-1.718 -8.757,-3.434 -13.136,-5.152 -1.23,3.14 -2.461,6.279 -3.692,9.418 M 52.52,36.483 c 4.378,1.717 8.758,3.435 13.135,5.151 1.232,-3.139 2.463,-6.278 3.694,-9.418 -4.378,-1.716 -8.757,-3.434 -13.136,-5.151 -1.231,3.14 -2.462,6.28 -3.693,9.418 m -19.307,-7.57 c 4.379,1.716 8.758,3.435 13.136,5.15 1.232,-3.14 2.462,-6.279 3.693,-9.417 -4.378,-1.716 -8.757,-3.434 -13.135,-5.151 -1.232,3.139 -2.462,6.277 -3.694,9.418 m 154.453,60.568 13.135,5.151 3.694,-9.418 -13.136,-5.151 z M 13.907,21.342 c 1.231,-3.14 2.462,-6.281 3.693,-9.418 4.379,1.716 8.757,3.433 13.136,5.151 -1.232,3.137 -2.463,6.278 -3.694,9.418 -4.378,-1.718 -8.756,-3.435 -13.135,-5.151 M 19.308,7.57 c 4.378,1.718 8.756,3.436 13.134,5.152 C 33.673,9.583 34.905,6.444 36.136,3.304 31.758,1.588 27.379,-0.13 23,-1.848 21.77,1.293 20.538,4.43 19.308,7.57"
         style="fill:#ffffff;fill-opacity:1;fill-rule:evenodd;stroke:none"
         transform="matrix(1.3333333,0,0,-1.3333333,74.134133,564.32027)"
         clip-path="url(#clipPath18)" />
      <path
         id="path19"
         d="m 0,0 194.17,-50.874 c 4.534,-1.188 7.268,-5.868 6.082,-10.4 L 166.108,-191.58 c -1.187,-4.533 -5.866,-7.27 -10.398,-6.081 l -194.171,50.875 c -4.532,1.187 -7.269,5.867 -6.079,10.401 L -10.399,-6.08 C -9.212,-1.548 -4.532,1.189 0,0"
         style="fill:#c67856;fill-opacity:1;fill-rule:evenodd;stroke:none"
         transform="matrix(1.3333333,0,0,-1.3333333,554.39453,418.95253)"
         clip-path="url(#clipPath20)" />
      <path
         id="path21"
         d="m 0,0 156.56,-41.021 c 4.535,-1.188 7.269,-5.868 6.083,-10.4 l -34.144,-130.306 c -1.187,-4.533 -5.866,-7.27 -10.398,-6.081 l -156.562,41.021 z"
         style="fill:#ad6546;fill-opacity:1;fill-rule:evenodd;stroke:none"
         transform="matrix(1.3333333,0,0,-1.3333333,604.5404,432.08987)"
         clip-path="url(#clipPath22)" />
      <path
         id="path23"
         d="M 0,0 C 0.268,-0.071 0.431,-0.347 0.359,-0.615 0.29,-0.884 0.015,-1.045 -0.255,-0.975 l -10.043,2.631 c -0.27,0.071 -0.43,0.347 -0.36,0.615 l 2.665,10.171 c 0.069,0.269 0.345,0.43 0.613,0.359 0.27,-0.07 0.431,-0.345 0.359,-0.613 L -9.558,2.502 Z m 137.775,-25.751 c 0.072,0.269 0.347,0.43 0.616,0.358 0.268,-0.071 0.429,-0.346 0.359,-0.613 l -2.666,-10.172 c -0.069,-0.268 -0.345,-0.429 -0.613,-0.359 l -10.044,2.633 c -0.269,0.069 -0.43,0.344 -0.361,0.613 0.072,0.268 0.347,0.431 0.616,0.359 l 9.558,-2.505 z M 158.083,90.73 c -0.269,0.07 -0.43,0.347 -0.359,0.614 0.07,0.27 0.345,0.429 0.614,0.36 l 10.043,-2.631 c 0.268,-0.072 0.431,-0.347 0.361,-0.615 l -2.666,-10.172 c -0.071,-0.267 -0.345,-0.43 -0.613,-0.358 -0.269,0.07 -0.43,0.344 -0.361,0.615 l 2.54,9.683 z M 20.306,116.481 c -0.07,-0.268 -0.345,-0.429 -0.614,-0.36 -0.268,0.072 -0.429,0.347 -0.358,0.615 l 2.665,10.17 c 0.069,0.269 0.345,0.43 0.613,0.359 l 10.044,-2.631 c 0.269,-0.07 0.43,-0.347 0.361,-0.614 -0.071,-0.27 -0.347,-0.429 -0.616,-0.36 l -9.556,2.506 z"
         style="fill:#faba9c;fill-opacity:1;fill-rule:evenodd;stroke:none"
         transform="matrix(1.3333333,0,0,-1.3333333,583.37893,619.22133)"
         clip-path="url(#clipPath24)" />
      <path
         id="path25"
         d="M 0,0 C 8.675,-2.273 13.865,-11.149 11.593,-19.826 9.319,-28.5 0.443,-33.691 -8.232,-31.417 -16.906,-29.146 -22.098,-20.27 -19.825,-11.594 -17.552,-2.917 -8.676,2.271 0,0"
         style="fill:#ad6546;fill-opacity:1;fill-rule:evenodd;stroke:none"
         transform="matrix(1.3333333,0,0,-1.3333333,553.82547,500.9948)"
         clip-path="url(#clipPath26)" />
      <path
         id="path27"
         d="m 0,0 c 4.693,-1.23 7.501,-6.031 6.271,-10.724 -1.229,-4.691 -6.03,-7.499 -10.722,-6.27 -4.693,1.229 -7.501,6.03 -6.271,10.723 C -9.492,-1.579 -4.691,1.229 0,0"
         style="fill:#c67856;fill-opacity:1;fill-rule:evenodd;stroke:none"
         transform="matrix(1.3333333,0,0,-1.3333333,551.30467,510.61067)"
         clip-path="url(#clipPath28)" />
      <path
         id="path29"
         d="M 0,0 C -1.983,0.52 -4.03,-0.678 -4.55,-2.662 -5.07,-4.645 -3.872,-6.69 -1.89,-7.21 L 20,-12.946 c 1.982,-0.521 4.029,0.677 4.55,2.662 0.519,1.982 -0.678,4.027 -2.66,4.548 z m -5.971,-22.791 c -1.983,0.52 -4.032,-0.678 -4.552,-2.66 -0.518,-1.985 0.68,-4.029 2.663,-4.55 l 21.889,-5.736 c 1.983,-0.519 4.03,0.679 4.55,2.662 0.52,1.982 -0.678,4.029 -2.66,4.55 z m -14.947,-57.041 c -1.982,0.519 -4.029,-0.676 -4.55,-2.659 -0.519,-1.985 0.678,-4.032 2.661,-4.551 l 21.89,-5.735 c 1.984,-0.52 4.031,0.677 4.551,2.66 0.518,1.983 -0.678,4.031 -2.662,4.55 z m -5.971,-22.789 c -1.982,0.517 -4.029,-0.678 -4.55,-2.661 -0.519,-1.983 0.678,-4.032 2.662,-4.551 l 21.889,-5.733 c 1.983,-0.52 4.03,0.675 4.549,2.658 0.521,1.983 -0.677,4.032 -2.66,4.552 z m 2.987,11.395 c 7.297,-1.914 14.591,-3.824 21.889,-5.737 1.983,-0.519 3.181,-2.565 2.66,-4.548 -0.519,-1.984 -2.566,-3.181 -4.548,-2.662 -7.297,1.913 -14.594,3.823 -21.89,5.737 -1.985,0.52 -3.181,2.565 -2.662,4.548 0.519,1.985 2.568,3.182 4.551,2.662 m 20.916,79.83 c 7.295,-1.911 14.592,-3.823 21.889,-5.734 1.985,-0.52 3.18,-2.567 2.66,-4.552 -0.518,-1.982 -2.565,-3.178 -4.549,-2.658 -7.296,1.909 -14.593,3.823 -21.888,5.735 -1.984,0.52 -3.181,2.567 -2.66,4.549 0.517,1.983 2.564,3.181 4.548,2.66"
         style="fill:#ad6546;fill-opacity:1;fill-rule:evenodd;stroke:none"
         transform="matrix(1.3333333,0,0,-1.3333333,552.92973,444.89453)"
         clip-path="url(#clipPath30)" />
      <path
         id="path31"
         d="m 0,0 c 10.03,-5.054 13.088,-19.223 6.828,-31.646 -6.26,-12.422 -19.465,-18.397 -29.496,-13.343 -10.031,5.053 -13.087,19.222 -6.828,31.645 C -23.236,-0.92 -10.031,5.054 0,0"
         style="fill:#ffffff;fill-opacity:1;fill-rule:evenodd;stroke:none"
         transform="matrix(1.3333333,0,0,-1.3333333,246.9356,659.48173)"
         clip-path="url(#clipPath32)" />
      <path
         id="path33"
         d="M 0,0 C 1.644,0.663 4.031,-1.416 5.335,-4.644 6.637,-7.87 6.361,-11.025 4.718,-11.689 3.076,-12.351 0.689,-10.271 -0.613,-7.044 -1.917,-3.816 -1.642,-0.662 0,0"
         style="fill:#c67856;fill-opacity:1;fill-rule:evenodd;stroke:none"
         transform="matrix(1.3333333,0,0,-1.3333333,469.5364,504.5976)"
         clip-path="url(#clipPath34)" />
      <path
         id="path35"
         d="m 0,0 7.184,2.899 21.631,-53.59 -7.183,-2.9 z"
         style="fill:#ad6546;fill-opacity:1;fill-rule:evenodd;stroke:none"
         transform="matrix(1.3333333,0,0,-1.3333333,439.41667,443.77347)"
         clip-path="url(#clipPath36)" />
      <path
         id="path37"
         d="M 0,0 1.936,0.78 -1.172,6.801 -1.943,6.491 Z"
         style="fill:#ad6546;fill-opacity:1;fill-rule:evenodd;stroke:none"
         transform="matrix(1.3333333,0,0,-1.3333333,438.1784,430.6224)"
         clip-path="url(#clipPath38)" />
      <path
         id="path39"
         d="M 0,0 7.184,2.899 0.723,12.681 -2.139,11.527 Z"
         style="fill:#c67856;fill-opacity:1;fill-rule:evenodd;stroke:none"
         transform="matrix(1.3333333,0,0,-1.3333333,439.41667,443.77347)"
         clip-path="url(#clipPath40)" />
      <path
         id="path41"
         d="m 0,0 22.299,27.157 c 1.488,1.81 4.185,2.075 5.996,0.588 l 59.663,-48.992 c 1.812,-1.486 2.077,-4.185 0.589,-5.996 l -22.3,-27.155 c -1.486,-1.813 -4.184,-2.076 -5.994,-0.59 L 0.588,-5.996 C -1.222,-4.509 -1.486,-1.811 0,0"
         style="fill:#ffffff;fill-opacity:1;fill-rule:evenodd;stroke:none"
         transform="matrix(1.3333333,0,0,-1.3333333,66.848267,375.81573)"
         clip-path="url(#clipPath42)" />
      <path
         id="path43"
         d="M 0,0 7.518,9.156 8.392,8.437 c 0.877,-0.72 2.184,-0.592 2.904,0.285 l 4.646,5.658 c 0.72,0.877 0.592,2.183 -0.285,2.904 l -0.875,0.717 7.518,9.156 c 0.651,0.792 1.831,0.908 2.623,0.257 l 59.664,-48.992 c 0.792,-0.651 0.908,-1.832 0.258,-2.624 L 62.544,-51.358 c -0.65,-0.792 -1.831,-0.909 -2.623,-0.258 L 0.257,-2.624 C -0.535,-1.973 -0.65,-0.792 0,0"
         style="fill:#ad6546;fill-opacity:1;fill-rule:evenodd;stroke:none"
         transform="matrix(1.3333333,0,0,-1.3333333,69.317067,377.8424)"
         clip-path="url(#clipPath44)" />
    </g>
  </g>
</svg>
